<?xml version="1.0" encoding="iso-8859-1"?>
<!-- Generator: Adobe Illustrator 19.0.0, SVG Export Plug-In . SVG Version: 6.00 Build 0)  -->
<svg version="1.1" id="Capa_1" xmlns="http://www.w3.org/2000/svg" xmlns:xlink="http://www.w3.org/1999/xlink" x="0px" y="0px"
	 viewBox="0 0 512 512" style="enable-background:new 0 0 512 512;" xml:space="preserve">
<circle style="fill:#D3D3D8;" cx="256" cy="256" r="256"/>
<path style="fill:#9E9EA2;" d="M512,256c0-7.313-0.324-14.548-0.925-21.706L394.89,118.11L118.11,394.89l116.185,116.185
	C241.452,511.676,248.687,512,256,512C397.385,512,512,397.385,512,256z"/>
<path style="fill:#FF3636;" d="M256,60C148.277,60,60,148.277,60,256s88.277,196,196,196s196-88.277,196-196S363.723,60,256,60z"/>
<path style="fill:#F40000;" d="M452,256c0,107.723-88.277,196-196,196V60C363.723,60,452,148.277,452,256z"/>
<polygon style="fill:#E7E7E7;" points="288.385,256 353.387,321.002 321.002,353.387 256,288.385 190.998,353.387 158.613,321.002 
	223.615,256 158.613,190.998 190.998,158.613 256,223.615 321.002,158.613 353.387,190.998 "/>
<polygon style="fill:#D3D3D8;" points="288.385,256 353.387,321.002 321.002,353.387 256,288.385 256,223.615 321.002,158.613 
	353.387,190.998 "/>
<g>
</g>
<g>
</g>
<g>
</g>
<g>
</g>
<g>
</g>
<g>
</g>
<g>
</g>
<g>
</g>
<g>
</g>
<g>
</g>
<g>
</g>
<g>
</g>
<g>
</g>
<g>
</g>
<g>
</g>
</svg>
